# xmcd CD database file
#
# Track frame offsets:
#	150
#	15765
#	29477
#	43215
#	59860
#	76852
#	92475
#	109065
#	121960
#	139935
#
# Disc length: 2087 seconds
#
# Revision: 3
# Processed by: cddbd v1.5.2PL0 Copyright (c) Steve Scherf et al.
# Submitted via: CDex 1.81
#
DISCID=7f08250a
DTITLE=Holly Dunn - Holly Dunn
DYEAR=1986
DGENRE=Country
TTITLE0=Two Too Many
TTITLE1=Your Memory (Won't Let Go Of Me)
TTITLE2=Burnin' Wheel
TTITLE3=The Sweetest Love I Never Knew
TTITLE4=It'll Be All Right
TTITLE5=Daddy's Hands
TTITLE6=My Heart Holds On
TTITLE7=That's A Real Good Way To Get Yourself Loved
TTITLE8=Hideaway Heart
TTITLE9=Someone Carried You
EXTD=D2-71052\n1986 MTM Records YEAR: 1986
EXTT0=
EXTT1=
EXTT2=
EXTT3=
EXTT4=
EXTT5=
EXTT6=
EXTT7=
EXTT8=
EXTT9=
PLAYORDER=
